<?xml version="1.0" standalone="no"?><svg xmlns="http://www.w3.org/2000/svg" viewBox="0 0 1440 320"><path fill="#0099ff" fill-opacity="0.7" d="M0,320L30,309.3C60,299,120,277,180,261.3C240,245,300,235,360,229.3C420,224,480,224,540,208C600,192,660,160,720,165.3C780,171,840,213,900,240C960,267,1020,277,1080,277.3C1140,277,1200,267,1260,240C1320,213,1380,171,1410,149.3L1440,128L1440,0L1410,0C1380,0,1320,0,1260,0C1200,0,1140,0,1080,0C1020,0,960,0,900,0C840,0,780,0,720,0C660,0,600,0,540,0C480,0,420,0,360,0C300,0,240,0,180,0C120,0,60,0,30,0L0,0Z"></path></svg>